<?xml version="1.0" encoding="UTF-8" standalone="no"?>
<svg style="padding: 10px;" width="300px" height="320px" viewBox="0 0 300 320" version="1.1" xmlns="http://www.w3.org/2000/svg" xmlns:xlink="http://www.w3.org/1999/xlink" xmlns:sketch="http://www.bohemiancoding.com/sketch/ns">
    <!-- Generator: Sketch 3.3.2 (12043) - http://www.bohemiancoding.com/sketch -->
    <title>Miranda</title>
    <desc>Created with Sketch.</desc>
    <style>
    <![CDATA[ 
      #nav-bg { fill: white; } /* $navigation-background-color */
      #nav-link { fill: deepskyblue; } /* $navigation-link-color */
      #search-action { fill: green; } /* $landscapeSearch-searchButtonBackground-color */
      #body-header { fill: #000; } /* $bodyContent-header-color */
      #body-link { fill: firebrick; } /* $bodyContent-link-color */
      #sidebar-header { fill: aquamarine; } /* $sidebarContent-header-color */
      #sidebar-link { fill: blue; } /* $sidebarContent-link-color */
      #footer-primary { fill: cyan; } /* $primaryFooter-background-color */
      #footer-secondary { fill: darkturquoise; } /* $secondaryFooter-background-color */
    ]]>
    </style>
    <defs>
        <filter x="-50%" y="-50%" width="200%" height="200%" filterUnits="objectBoundingBox" id="filter-1">
            <feOffset dx="0" dy="0" in="SourceAlpha" result="shadowOffsetInner1"></feOffset>
            <feGaussianBlur stdDeviation="0" in="shadowOffsetInner1" result="shadowBlurInner1"></feGaussianBlur>
            <feComposite in="shadowBlurInner1" in2="SourceAlpha" operator="arithmetic" k2="-1" k3="1" result="shadowInnerInner1"></feComposite>
            <feColorMatrix values="0 0 0 0 0   0 0 0 0 0   0 0 0 0 0  0 0 0 0.14 0" in="shadowInnerInner1" type="matrix" result="shadowMatrixInner1"></feColorMatrix>
            <feMerge>
                <feMergeNode in="SourceGraphic"></feMergeNode>
                <feMergeNode in="shadowMatrixInner1"></feMergeNode>
            </feMerge>
        </filter>
        <rect id="path-2" x="0" y="0" width="300" height="320" rx="4"></rect>
        <filter x="-50%" y="-50%" width="200%" height="200%" filterUnits="objectBoundingBox" id="filter-4">
            <feOffset dx="0" dy="1" in="SourceAlpha" result="shadowOffsetOuter1"></feOffset>
            <feGaussianBlur stdDeviation="0" in="shadowOffsetOuter1" result="shadowBlurOuter1"></feGaussianBlur>
            <feColorMatrix values="0 0 0 0 0   0 0 0 0 0   0 0 0 0 0  0 0 0 0.14 0" in="shadowBlurOuter1" type="matrix" result="shadowMatrixOuter1"></feColorMatrix>
            <feMerge>
                <feMergeNode in="shadowMatrixOuter1"></feMergeNode>
                <feMergeNode in="SourceGraphic"></feMergeNode>
            </feMerge>
        </filter>
        <rect id="path-5" x="0" y="0" width="298" height="126"></rect>
    </defs>
    <g id="Page-1" stroke="none" stroke-width="1" fill="none" fill-rule="evenodd" sketch:type="MSPage">
        <g id="Miranda" sketch:type="MSLayerGroup">
            <mask id="mask-3" sketch:name="Base" fill="white">
                <use xlink:href="#path-2"></use>
            </mask>
            <use id="Base" stroke="#CCCCCC" fill="#FFFFFF" filter="url(#filter-1)" sketch:type="MSShapeGroup" xlink:href="#path-2"></use>
            <g id="Body-Content-" mask="url(#mask-3)">
                <g transform="translate(21.000000, 165.000000)">
                    <rect id="body-header" fill="#767676" sketch:type="MSShapeGroup" x="0" y="0" width="60" height="10"></rect>
                    <rect id="body-header" fill="#767676" sketch:type="MSShapeGroup" x="0" y="60" width="60" height="10"></rect>
                    <g id="Paragraphs" stroke-width="1" fill="none" sketch:type="MSLayerGroup" transform="translate(0.000000, 20.000000)">
                        <rect id="Rectangle-12-Copy" fill="#DDDDDD" sketch:type="MSShapeGroup" x="0" y="0" width="14" height="4"></rect>
                        <rect id="Rectangle-12-Copy-17" fill="#DDDDDD" sketch:type="MSShapeGroup" x="122" y="16" width="14" height="4"></rect>
                        <rect id="Rectangle-12-Copy-15" fill="#DDDDDD" sketch:type="MSShapeGroup" x="70" y="16" width="14" height="4"></rect>
                        <rect id="Rectangle-12-Copy-12" fill="#DDDDDD" sketch:type="MSShapeGroup" x="18" y="16" width="14" height="4"></rect>
                        <rect id="Rectangle-12-Copy-10" fill="#DDDDDD" sketch:type="MSShapeGroup" x="74" y="8" width="14" height="4"></rect>
                        <rect id="Rectangle-12-Copy-19" fill="#DDDDDD" sketch:type="MSShapeGroup" x="52" y="24" width="14" height="4"></rect>
                        <rect id="body-link" fill="#767676" sketch:type="MSShapeGroup" x="19" y="0" width="30" height="4"></rect>
                        <rect id="Rectangle-12-Copy-8" fill="#DDDDDD" sketch:type="MSShapeGroup" x="22" y="8" width="30" height="4"></rect>
                        <rect id="Rectangle-12-Copy-18" fill="#DDDDDD" sketch:type="MSShapeGroup" x="0" y="24" width="30" height="4"></rect>
                        <rect id="body-link" fill="#767676" sketch:type="MSShapeGroup" x="36" y="16" width="30" height="4"></rect>
                        <rect id="Rectangle-12-Copy-3" fill="#DDDDDD" sketch:type="MSShapeGroup" x="53" y="0" width="18" height="4"></rect>
                        <rect id="Rectangle-12-Copy-7" fill="#DDDDDD" sketch:type="MSShapeGroup" x="0" y="8" width="18" height="4"></rect>
                        <rect id="Rectangle-12-Copy-4" fill="#DDDDDD" sketch:type="MSShapeGroup" x="75" y="0" width="14" height="4"></rect>
                        <rect id="Rectangle-12-Copy-13" fill="#DDDDDD" sketch:type="MSShapeGroup" x="0" y="16" width="14" height="4"></rect>
                        <rect id="Rectangle-12-Copy-9" fill="#DDDDDD" sketch:type="MSShapeGroup" x="56" y="8" width="14" height="4"></rect>
                        <rect id="Rectangle-12-Copy-20" fill="#DDDDDD" sketch:type="MSShapeGroup" x="34" y="24" width="14" height="4"></rect>
                        <rect id="Rectangle-12-Copy-5" fill="#DDDDDD" sketch:type="MSShapeGroup" x="93" y="0" width="18" height="4"></rect>
                        <rect id="body-link" fill="#767676" sketch:type="MSShapeGroup" x="115" y="0" width="30" height="4"></rect>
                        <rect id="Rectangle-12-Copy-11" fill="#DDDDDD" sketch:type="MSShapeGroup" x="92" y="8" width="30" height="4"></rect>
                        <rect id="Rectangle-12-Copy-16" fill="#DDDDDD" sketch:type="MSShapeGroup" x="88" y="16" width="30" height="4"></rect>
                    </g>
                    <g id="Paragraphs-Copy" stroke-width="1" fill="none" sketch:type="MSLayerGroup" transform="translate(0.000000, 80.000000)">
                        <rect id="Rectangle-12-Copy" fill="#DDDDDD" sketch:type="MSShapeGroup" x="0" y="0" width="14" height="4"></rect>
                        <rect id="Rectangle-12-Copy-17" fill="#DDDDDD" sketch:type="MSShapeGroup" x="122" y="16" width="14" height="4"></rect>
                        <rect id="Rectangle-12-Copy-15" fill="#DDDDDD" sketch:type="MSShapeGroup" x="70" y="16" width="14" height="4"></rect>
                        <rect id="Rectangle-12-Copy-12" fill="#DDDDDD" sketch:type="MSShapeGroup" x="18" y="16" width="14" height="4"></rect>
                        <rect id="Rectangle-12-Copy-10" fill="#DDDDDD" sketch:type="MSShapeGroup" x="74" y="8" width="14" height="4"></rect>
                        <rect id="Rectangle-12-Copy-19" fill="#DDDDDD" sketch:type="MSShapeGroup" x="52" y="24" width="14" height="4"></rect>
                        <rect id="body-link" fill="#767676" sketch:type="MSShapeGroup" x="19" y="0" width="30" height="4"></rect>
                        <rect id="Rectangle-12-Copy-8" fill="#DDDDDD" sketch:type="MSShapeGroup" x="22" y="8" width="30" height="4"></rect>
                        <rect id="Rectangle-12-Copy-18" fill="#DDDDDD" sketch:type="MSShapeGroup" x="0" y="24" width="30" height="4"></rect>
                        <rect id="body-link" fill="#767676" sketch:type="MSShapeGroup" x="36" y="16" width="30" height="4"></rect>
                        <rect id="Rectangle-12-Copy-3" fill="#DDDDDD" sketch:type="MSShapeGroup" x="53" y="0" width="18" height="4"></rect>
                        <rect id="Rectangle-12-Copy-7" fill="#DDDDDD" sketch:type="MSShapeGroup" x="0" y="8" width="18" height="4"></rect>
                        <rect id="Rectangle-12-Copy-4" fill="#DDDDDD" sketch:type="MSShapeGroup" x="75" y="0" width="14" height="4"></rect>
                        <rect id="Rectangle-12-Copy-13" fill="#DDDDDD" sketch:type="MSShapeGroup" x="0" y="16" width="14" height="4"></rect>
                        <rect id="Rectangle-12-Copy-9" fill="#DDDDDD" sketch:type="MSShapeGroup" x="56" y="8" width="14" height="4"></rect>
                        <rect id="Rectangle-12-Copy-20" fill="#DDDDDD" sketch:type="MSShapeGroup" x="34" y="24" width="14" height="4"></rect>
                        <rect id="Rectangle-12-Copy-5" fill="#DDDDDD" sketch:type="MSShapeGroup" x="93" y="0" width="18" height="4"></rect>
                        <rect id="body-link" fill="#767676" sketch:type="MSShapeGroup" x="115" y="0" width="30" height="4"></rect>
                        <rect id="Rectangle-12-Copy-11" fill="#DDDDDD" sketch:type="MSShapeGroup" x="92" y="8" width="30" height="4"></rect>
                        <rect id="Rectangle-12-Copy-16" fill="#DDDDDD" sketch:type="MSShapeGroup" x="88" y="16" width="30" height="4"></rect>
                    </g>
                </g>
            </g>
            <g id="Sidebar-Content" mask="url(#mask-3)">
                <g transform="translate(191.000000, 165.000000)">
                    <g id="Sidebar-Section">
                        <rect id="sidebar-header" fill="#767676" sketch:type="MSShapeGroup" x="0" y="0" width="40" height="6"></rect>
                        <g id="Sidebar-Links" transform="translate(0.000000, 14.000000)" fill="#767676" sketch:type="MSShapeGroup">
                            <rect id="sidebar-link" x="0" y="0" width="30" height="4"></rect>
                            <rect id="sidebar-link" x="0" y="9" width="30" height="4"></rect>
                            <rect id="sidebar-link" x="0" y="18" width="30" height="4"></rect>
                            <rect id="sidebar-link" x="0" y="27" width="30" height="4"></rect>
                            <rect id="sidebar-link" x="40" y="0" width="30" height="4"></rect>
                            <rect id="sidebar-link" x="40" y="9" width="30" height="4"></rect>
                            <rect id="sidebar-link" x="40" y="18" width="30" height="4"></rect>
                        </g>
                        <rect id="Sidebar-Border" fill="#F3F3F3" sketch:type="MSShapeGroup" x="0" y="53" width="70" height="1"></rect>
                    </g>
                    <g id="Sidebar-Section-Copy" transform="translate(0.000000, 62.000000)">
                        <rect id="sidebar-header" fill="#767676" sketch:type="MSShapeGroup" x="0" y="0" width="40" height="6"></rect>
                        <g id="Sidebar-Links" transform="translate(0.000000, 14.000000)" fill="#767676" sketch:type="MSShapeGroup">
                            <rect id="sidebar-link" x="0" y="0" width="30" height="4"></rect>
                            <rect id="sidebar-link" x="0" y="9" width="30" height="4"></rect>
                            <rect id="sidebar-link" x="0" y="18" width="30" height="4"></rect>
                            <rect id="sidebar-link" x="0" y="27" width="30" height="4"></rect>
                            <rect id="sidebar-link" x="40" y="0" width="30" height="4"></rect>
                            <rect id="sidebar-link" x="40" y="9" width="30" height="4"></rect>
                            <rect id="sidebar-link" x="40" y="18" width="30" height="4"></rect>
                        </g>
                        <rect id="Sidebar-Border" fill="#F3F3F3" sketch:type="MSShapeGroup" x="0" y="53" width="70" height="1"></rect>
                    </g>
                </g>
            </g>
            <g id="nav" mask="url(#mask-3)">
                <g transform="translate(1.000000, 1.000000)">
                    <path d="M0,4.03684567 C0,1.8278086 1.78769244,0.0368050683 4.0011891,0.0365262702 L293.998811,-3.25114284e-15 C296.208607,-0.000278331922 298,1.78661597 298,4.00509393 L298,26 L0,26 L0,4.03684567 Z" id="nav-bg" fill="#FFFFFF" fill-rule="evenodd" filter="url(#filter-4)" sketch:type="MSShapeGroup"></path>
                    <g id="nav---Links" stroke-width="1" fill="none" fill-rule="evenodd" sketch:type="MSLayerGroup" transform="translate(166.000000, 9.000000)">
                        <rect id="nav-link" fill="#767676" sketch:type="MSShapeGroup" x="0" y="0" width="20" height="8"></rect>
                        <rect id="nav-link" fill="#767676" sketch:type="MSShapeGroup" x="26" y="0" width="20" height="8"></rect>
                        <rect id="nav-link" fill="#767676" sketch:type="MSShapeGroup" x="52" y="0" width="20" height="8"></rect>
                        <rect id="nav-link" fill="#767676" sketch:type="MSShapeGroup" x="78" y="0" width="20" height="8"></rect>
                        <rect id="nav-link" fill="#767676" sketch:type="MSShapeGroup" x="104" y="0" width="20" height="8"></rect>
                    </g>
                    <text id="nav---logo" fill="none" sketch:type="MSTextLayer" font-family="Helvetica Neue" font-size="10" font-weight="bold">
                        <tspan x="8" y="17" fill="#A8A8A8">LOGO</tspan>
                    </text>
                </g>
            </g>
            <g id="Hero-Search" mask="url(#mask-3)">
                <g transform="translate(1.000000, 28.000000)">
                    <g id="Hero-Search-BG" stroke="none" stroke-width="1" fill="none" sketch:type="MSLayerGroup">
                        <mask id="mask-6" sketch:name="Mask" fill="white">
                            <use xlink:href="#path-5"></use>
                        </mask>
                        <use id="Mask" fill="#F0F0F0" sketch:type="MSShapeGroup" xlink:href="#path-5"></use>
                        <g id="fa-file-photo-o-(alias)" mask="url(#mask-6)" fill="#DFDFDF" sketch:type="MSShapeGroup">
                            <g transform="translate(-27.000000, 8.000000)" id="Fill-238">
                                <path d="M174,137.47618 L174,82.6603333 L119.760768,28.1582654 L54.2392322,93.68353 L32.5978464,71.6371365 L0,104.706727 L0,137.47618 L174,137.47618 L174,137.47618 Z M363.158948,59.2503095 L304.194373,0 L232.964575,71.2338514 L209.437784,47.2667675 L174,83.2173933 L174,118.841735 L363.158948,118.841735 L363.158948,59.2503095 Z M221.584663,30.9536116 C225.124012,27.397111 226.803703,23.169999 226.803703,18.0989715 C226.803703,13.0204092 225.124012,8.79329717 221.584663,5.24433147 C218.052812,1.69536578 213.846085,0 208.792014,0 C203.745441,0 199.538715,1.69536578 195.999365,5.24433147 C192.467514,8.79329717 190.787823,13.0204092 190.787823,18.0989715 C190.787823,23.169999 192.467514,27.397111 195.999365,30.9536116 C199.538715,34.5025773 203.745441,36.1979431 208.792014,36.1979431 C213.846085,36.1979431 218.052812,34.5025773 221.584663,30.9536116 Z"></path>
                            </g>
                        </g>
                    </g>
                    <rect id="HS---Header-" stroke="none" fill="#FFFFFF" sketch:type="MSShapeGroup" x="20" y="20" width="60" height="10"></rect>
                    <rect id="Rectangle-9-Copy" stroke="#CDCDCD" stroke-width="1" fill-opacity="0.8" fill="#FFFFFF" sketch:type="MSShapeGroup" x="20" y="36" width="90" height="70" rx="2"></rect>
                    <rect id="search-action" stroke="none" fill="#75C51F" sketch:type="MSShapeGroup" x="26" y="86" width="36" height="14" rx="1"></rect>
                </g>
            </g>
            <g id="Footer" mask="url(#mask-3)" stroke="#000000" stroke-opacity="0.2" sketch:type="MSShapeGroup">
                <g transform="translate(0.000000, 241.000000)">
                    <rect id="footer-primary" fill="#4990E2" x="0" y="0" width="300" height="20"></rect>
                    <rect id="footer-secondary" fill="#376CA8" x="0" y="19" width="300" height="60"></rect>
                </g>
            </g>
        </g>
    </g>
</svg>
