<?xml version="1.0" encoding="UTF-8" standalone="no"?>
<svg width="300px" height="320px" viewBox="0 0 300 320" version="1.1" xmlns="http://www.w3.org/2000/svg" xmlns:xlink="http://www.w3.org/1999/xlink" xmlns:sketch="http://www.bohemiancoding.com/sketch/ns">
    <!-- Generator: Sketch 3.3.2 (12043) - http://www.bohemiancoding.com/sketch -->
    <title>molly</title>
    <desc>Created with Sketch.</desc>
    <style>
    <![CDATA[
      #side-bg { fill: #BADA55; } /* $body-sideBackground-color */
      #nav-link { fill: deepskyblue; } /* $navigation-link-color */
      #search-action { fill: green; } /* $landscapeSearch-searchButtonBackground-color */
      #body-header { fill: #000; } /* $bodyContent-header-color */
      #body-link { fill: firebrick; } /* $bodyContent-link-color */
      #sidebar-header { fill: aquamarine; } /* $sidebarContent-header-color */
      #sidebar-link { fill: blue; } /* $sidebarContent-link-color */
      #footer-accent { fill: yellow; } /* $molly-footerTopBorder-color */
      #footer-header { fill: brown; } /* $bodyContent-header-color */
      #footer-link { fill: orange; } /* $bodyContent-link-color */
    ]]>
    </style>
    <defs>
        <filter x="-50%" y="-50%" width="200%" height="200%" filterUnits="objectBoundingBox" id="filter-1">
            <feOffset dx="0" dy="0" in="SourceAlpha" result="shadowOffsetInner1"></feOffset>
            <feGaussianBlur stdDeviation="0" in="shadowOffsetInner1" result="shadowBlurInner1"></feGaussianBlur>
            <feComposite in="shadowBlurInner1" in2="SourceAlpha" operator="arithmetic" k2="-1" k3="1" result="shadowInnerInner1"></feComposite>
            <feColorMatrix values="0 0 0 0 0   0 0 0 0 0   0 0 0 0 0  0 0 0 0.14 0" in="shadowInnerInner1" type="matrix" result="shadowMatrixInner1"></feColorMatrix>
            <feMerge>
                <feMergeNode in="SourceGraphic"></feMergeNode>
                <feMergeNode in="shadowMatrixInner1"></feMergeNode>
            </feMerge>
        </filter>
        <rect id="path-2" x="0" y="0" width="300" height="320" rx="4"></rect>
        <rect id="path-4" x="0" y="0" width="230" height="118" rx="2"></rect>
    </defs>
    <g id="Page-1" stroke="none" stroke-width="1" fill="none" fill-rule="evenodd" sketch:type="MSPage">
        <g id="molly" sketch:type="MSLayerGroup">
            <mask id="mask-3" sketch:name="Base" fill="white">
                <use xlink:href="#path-2"></use>
            </mask>
            <use id="side-bg" stroke-opacity="0.2" stroke="#000000" fill="#9B9B9B" filter="url(#filter-1)" sketch:type="MSShapeGroup" xlink:href="#path-2"></use>
            <rect id="Body-BG" fill="#FFFFFF" sketch:type="MSShapeGroup" mask="url(#mask-3)" x="28" y="1" width="244" height="318"></rect>
            <g id="footer" mask="url(#mask-3)">
                <g transform="translate(35.000000, 259.000000)">
                    <rect id="footer-accent" fill="#F8E81C" sketch:type="MSShapeGroup" x="0" y="0" width="230" height="1"></rect>
                    <g id="footer-section" stroke-width="1" fill="none" sketch:type="MSLayerGroup" transform="translate(0.000000, 8.000000)">
                        <rect id="footer-header" fill="#767676" sketch:type="MSShapeGroup" x="0" y="0" width="40" height="6"></rect>
                        <g id="footer-links-" transform="translate(0.000000, 14.000000)" fill="#767676" sketch:type="MSShapeGroup">
                            <rect id="footer-link" x="0" y="0" width="27" height="4"></rect>
                            <rect id="footer-link" x="0" y="9" width="27" height="4"></rect>
                            <rect id="footer-link" x="0" y="18" width="27" height="4"></rect>
                            <rect id="footer-link" x="35" y="0" width="27" height="4"></rect>
                            <rect id="footer-link" x="35" y="9" width="27" height="4"></rect>
                            <rect id="footer-link" x="35" y="18" width="27" height="4"></rect>
                        </g>
                        <rect id="footer-devider" fill="#CCCCCC" sketch:type="MSShapeGroup" x="70" y="6" width="1" height="24"></rect>
                    </g>
                    <g id="footer-section-copy" stroke-width="1" fill="none" sketch:type="MSLayerGroup" transform="translate(79.000000, 8.000000)">
                        <rect id="footer-header" fill="#767676" sketch:type="MSShapeGroup" x="0" y="0" width="40" height="6"></rect>
                        <g id="footer-links-" transform="translate(0.000000, 14.000000)" fill="#767676" sketch:type="MSShapeGroup">
                            <rect id="footer-link" x="0" y="0" width="27" height="4"></rect>
                            <rect id="footer-link" x="0" y="9" width="27" height="4"></rect>
                            <rect id="footer-link" x="0" y="18" width="27" height="4"></rect>
                            <rect id="footer-link" x="35" y="0" width="27" height="4"></rect>
                            <rect id="footer-link" x="35" y="9" width="27" height="4"></rect>
                            <rect id="footer-link" x="35" y="18" width="27" height="4"></rect>
                        </g>
                        <rect id="footer-devider" fill="#CCCCCC" sketch:type="MSShapeGroup" x="70" y="6" width="1" height="24"></rect>
                    </g>
                    <g id="footer-section-copy-2" stroke-width="1" fill="none" sketch:type="MSLayerGroup" transform="translate(158.000000, 8.000000)">
                        <rect id="footer-header" fill="#767676" sketch:type="MSShapeGroup" x="0" y="0" width="40" height="6"></rect>
                        <g id="footer-contact" transform="translate(0.000000, 14.000000)" fill="#D6D6D6" sketch:type="MSShapeGroup">
                            <rect id="Rectangle-12-Copy-14" x="0" y="0" width="52" height="4"></rect>
                            <rect id="Rectangle-12-Copy-22" x="0" y="8" width="39" height="4"></rect>
                            <rect id="Rectangle-12-Copy-24" x="0" y="16" width="45" height="4"></rect>
                            <rect id="Rectangle-12-Copy-32" x="0" y="24" width="26" height="4"></rect>
                        </g>
                    </g>
                </g>
            </g>
            <g id="Body-Content-" mask="url(#mask-3)">
                <g transform="translate(35.000000, 151.000000)">
                    <rect id="body-header" fill="#767676" sketch:type="MSShapeGroup" x="0" y="0" width="60" height="10"></rect>
                    <g id="Paragraphs" stroke-width="1" fill="none" sketch:type="MSLayerGroup" transform="translate(0.000000, 20.000000)">
                        <rect id="Rectangle-12-Copy" fill="#DDDDDD" sketch:type="MSShapeGroup" x="0" y="0" width="14" height="4"></rect>
                        <rect id="Rectangle-12-Copy-17" fill="#DDDDDD" sketch:type="MSShapeGroup" x="122" y="16" width="14" height="4"></rect>
                        <rect id="Rectangle-12-Copy-15" fill="#DDDDDD" sketch:type="MSShapeGroup" x="70" y="16" width="14" height="4"></rect>
                        <rect id="Rectangle-12-Copy-12" fill="#DDDDDD" sketch:type="MSShapeGroup" x="18" y="16" width="14" height="4"></rect>
                        <rect id="Rectangle-12-Copy-10" fill="#DDDDDD" sketch:type="MSShapeGroup" x="74" y="8" width="14" height="4"></rect>
                        <rect id="Rectangle-12-Copy-27" fill="#DDDDDD" sketch:type="MSShapeGroup" x="74" y="64" width="14" height="4"></rect>
                        <rect id="Rectangle-12-Copy-19" fill="#DDDDDD" sketch:type="MSShapeGroup" x="52" y="24" width="14" height="4"></rect>
                        <rect id="body-link" fill="#767676" sketch:type="MSShapeGroup" x="19" y="0" width="30" height="4"></rect>
                        <rect id="Rectangle-12-Copy-8" fill="#DDDDDD" sketch:type="MSShapeGroup" x="22" y="8" width="30" height="4"></rect>
                        <rect id="Rectangle-12-Copy-28" fill="#DDDDDD" sketch:type="MSShapeGroup" x="22" y="64" width="30" height="4"></rect>
                        <rect id="Rectangle-12-Copy-18" fill="#DDDDDD" sketch:type="MSShapeGroup" x="0" y="24" width="30" height="4"></rect>
                        <rect id="body-link" fill="#767676" sketch:type="MSShapeGroup" x="36" y="16" width="30" height="4"></rect>
                        <rect id="Rectangle-12-Copy-3" fill="#DDDDDD" sketch:type="MSShapeGroup" x="53" y="0" width="18" height="4"></rect>
                        <rect id="Rectangle-12-Copy-7" fill="#DDDDDD" sketch:type="MSShapeGroup" x="0" y="8" width="18" height="4"></rect>
                        <rect id="Rectangle-12-Copy-29" fill="#DDDDDD" sketch:type="MSShapeGroup" x="0" y="64" width="18" height="4"></rect>
                        <rect id="Rectangle-12-Copy-4" fill="#DDDDDD" sketch:type="MSShapeGroup" x="75" y="0" width="14" height="4"></rect>
                        <rect id="Rectangle-12-Copy-13" fill="#DDDDDD" sketch:type="MSShapeGroup" x="0" y="16" width="14" height="4"></rect>
                        <rect id="Rectangle-12-Copy-9" fill="#DDDDDD" sketch:type="MSShapeGroup" x="56" y="8" width="14" height="4"></rect>
                        <rect id="Rectangle-12-Copy-30" fill="#DDDDDD" sketch:type="MSShapeGroup" x="56" y="64" width="14" height="4"></rect>
                        <rect id="Rectangle-12-Copy-20" fill="#DDDDDD" sketch:type="MSShapeGroup" x="34" y="24" width="14" height="4"></rect>
                        <rect id="Rectangle-12-Copy-5" fill="#DDDDDD" sketch:type="MSShapeGroup" x="93" y="0" width="18" height="4"></rect>
                        <rect id="body-link" fill="#767676" sketch:type="MSShapeGroup" x="115" y="0" width="30" height="4"></rect>
                        <rect id="Rectangle-12-Copy-11" fill="#DDDDDD" sketch:type="MSShapeGroup" x="92" y="8" width="30" height="4"></rect>
                        <rect id="Rectangle-12-Copy-31" fill="#DDDDDD" sketch:type="MSShapeGroup" x="92" y="64" width="30" height="4"></rect>
                        <rect id="Rectangle-12-Copy-16" fill="#DDDDDD" sketch:type="MSShapeGroup" x="88" y="16" width="30" height="4"></rect>
                        <rect id="Rectangle-12-Copy" fill="#DDDDDD" sketch:type="MSShapeGroup" x="0" y="40" width="14" height="4"></rect>
                        <rect id="Rectangle-12-Copy-17" fill="#DDDDDD" sketch:type="MSShapeGroup" x="122" y="56" width="14" height="4"></rect>
                        <rect id="Rectangle-12-Copy-15" fill="#DDDDDD" sketch:type="MSShapeGroup" x="70" y="56" width="14" height="4"></rect>
                        <rect id="Rectangle-12-Copy-12" fill="#DDDDDD" sketch:type="MSShapeGroup" x="18" y="56" width="14" height="4"></rect>
                        <rect id="Rectangle-12-Copy-10" fill="#DDDDDD" sketch:type="MSShapeGroup" x="74" y="48" width="14" height="4"></rect>
                        <rect id="body-link" fill="#767676" sketch:type="MSShapeGroup" x="19" y="40" width="30" height="4"></rect>
                        <rect id="Rectangle-12-Copy-8" fill="#DDDDDD" sketch:type="MSShapeGroup" x="22" y="48" width="30" height="4"></rect>
                        <rect id="body-link" fill="#767676" sketch:type="MSShapeGroup" x="36" y="56" width="30" height="4"></rect>
                        <rect id="Rectangle-12-Copy-3" fill="#DDDDDD" sketch:type="MSShapeGroup" x="53" y="40" width="18" height="4"></rect>
                        <rect id="Rectangle-12-Copy-7" fill="#DDDDDD" sketch:type="MSShapeGroup" x="0" y="48" width="18" height="4"></rect>
                        <rect id="Rectangle-12-Copy-4" fill="#DDDDDD" sketch:type="MSShapeGroup" x="75" y="40" width="14" height="4"></rect>
                        <rect id="Rectangle-12-Copy-13" fill="#DDDDDD" sketch:type="MSShapeGroup" x="0" y="56" width="14" height="4"></rect>
                        <rect id="Rectangle-12-Copy-9" fill="#DDDDDD" sketch:type="MSShapeGroup" x="56" y="48" width="14" height="4"></rect>
                        <rect id="Rectangle-12-Copy-5" fill="#DDDDDD" sketch:type="MSShapeGroup" x="93" y="40" width="18" height="4"></rect>
                        <rect id="body-link" fill="#767676" sketch:type="MSShapeGroup" x="115" y="40" width="30" height="4"></rect>
                        <rect id="Rectangle-12-Copy-11" fill="#DDDDDD" sketch:type="MSShapeGroup" x="92" y="48" width="30" height="4"></rect>
                        <rect id="Rectangle-12-Copy-16" fill="#DDDDDD" sketch:type="MSShapeGroup" x="88" y="56" width="30" height="4"></rect>
                    </g>
                </g>
            </g>
            <g id="Sidebar-Content" mask="url(#mask-3)">
                <g transform="translate(195.000000, 151.000000)">
                    <g id="Sidebar-Section">
                        <rect id="sidebar-header" fill="#767676" sketch:type="MSShapeGroup" x="0" y="0" width="40" height="6"></rect>
                        <g id="Sidebar-Links" transform="translate(0.000000, 14.000000)" fill="#767676" sketch:type="MSShapeGroup">
                            <rect id="sidebar-link" x="0" y="0" width="30" height="4"></rect>
                            <rect id="sidebar-link" x="0" y="9" width="30" height="4"></rect>
                            <rect id="sidebar-link" x="0" y="18" width="30" height="4"></rect>
                            <rect id="sidebar-link" x="0" y="27" width="30" height="4"></rect>
                            <rect id="sidebar-link" x="40" y="0" width="30" height="4"></rect>
                            <rect id="sidebar-link" x="40" y="9" width="30" height="4"></rect>
                            <rect id="sidebar-link" x="40" y="18" width="30" height="4"></rect>
                        </g>
                        <rect id="Sidebar-Border" fill="#F3F3F3" sketch:type="MSShapeGroup" x="0" y="53" width="70" height="1"></rect>
                    </g>
                    <g id="Sidebar-Section-Copy" transform="translate(0.000000, 62.000000)">
                        <rect id="sidebar-header" fill="#767676" sketch:type="MSShapeGroup" x="0" y="0" width="40" height="6"></rect>
                        <g id="Sidebar-Links" transform="translate(0.000000, 14.000000)" fill="#767676" sketch:type="MSShapeGroup">
                            <rect id="sidebar-link" x="0" y="0" width="30" height="4"></rect>
                            <rect id="sidebar-link" x="0" y="9" width="30" height="4"></rect>
                            <rect id="sidebar-link" x="40" y="0" width="30" height="4"></rect>
                            <rect id="sidebar-link" x="40" y="9" width="30" height="4"></rect>
                        </g>
                    </g>
                </g>
            </g>
            <g id="nav" mask="url(#mask-3)">
                <g transform="translate(35.000000, 6.000000)">
                    <g id="nav---Links" stroke-width="1" fill-rule="evenodd" sketch:type="MSLayerGroup" transform="translate(106.000000, 2.000000)">
                        <rect id="nav-link" fill="#767676" sketch:type="MSShapeGroup" x="0" y="0" width="20" height="8"></rect>
                        <rect id="nav-link" fill="#767676" sketch:type="MSShapeGroup" x="26" y="0" width="20" height="8"></rect>
                        <rect id="nav-link" fill="#767676" sketch:type="MSShapeGroup" x="52" y="0" width="20" height="8"></rect>
                        <rect id="nav-link" fill="#767676" sketch:type="MSShapeGroup" x="78" y="0" width="20" height="8"></rect>
                        <rect id="nav-link" fill="#767676" sketch:type="MSShapeGroup" x="104" y="0" width="20" height="8"></rect>
                    </g>
                    <text id="nav---logo" sketch:type="MSTextLayer" font-family="Helvetica Neue" font-size="10" font-weight="bold">
                        <tspan x="0" y="10" fill="#A8A8A8">LOGO</tspan>
                    </text>
                </g>
            </g>
            <g id="Hero-Search" mask="url(#mask-3)">
                <g transform="translate(35.000000, 23.000000)">
                    <g id="Hero-Search-BG" stroke="none" stroke-width="1" fill="none" sketch:type="MSLayerGroup">
                        <mask id="mask-5" sketch:name="Mask" fill="white">
                            <use xlink:href="#path-4"></use>
                        </mask>
                        <use id="Mask" fill="#F0F0F0" sketch:type="MSShapeGroup" xlink:href="#path-4"></use>
                        <g id="fa-file-photo-o-(alias)" mask="url(#mask-5)" fill="#DFDFDF" sketch:type="MSShapeGroup">
                            <g transform="translate(-61.000000, 14.000000)" id="Fill-238">
                                <path d="M174,137.47618 L174,82.6603333 L119.760768,28.1582654 L54.2392322,93.68353 L32.5978464,71.6371365 L0,104.706727 L0,137.47618 L174,137.47618 L174,137.47618 Z M363.158948,59.2503095 L304.194373,0 L232.964575,71.2338514 L209.437784,47.2667675 L174,83.2173933 L174,118.841735 L363.158948,118.841735 L363.158948,59.2503095 Z M221.584663,30.9536116 C225.124012,27.397111 226.803703,23.169999 226.803703,18.0989715 C226.803703,13.0204092 225.124012,8.79329717 221.584663,5.24433147 C218.052812,1.69536578 213.846085,0 208.792014,0 C203.745441,0 199.538715,1.69536578 195.999365,5.24433147 C192.467514,8.79329717 190.787823,13.0204092 190.787823,18.0989715 C190.787823,23.169999 192.467514,27.397111 195.999365,30.9536116 C199.538715,34.5025773 203.745441,36.1979431 208.792014,36.1979431 C213.846085,36.1979431 218.052812,34.5025773 221.584663,30.9536116 Z"></path>
                            </g>
                        </g>
                    </g>
                    <rect id="HS---Header-" stroke="none" fill="#FFFFFF" sketch:type="MSShapeGroup" x="5" y="10" width="60" height="10"></rect>
                    <rect id="Rectangle-9-Copy" stroke="#CDCDCD" stroke-width="1" fill-opacity="0.8" fill="#FFFFFF" sketch:type="MSShapeGroup" x="5" y="26" width="90" height="70" rx="2"></rect>
                    <rect id="search-action" stroke="none" fill="#75C51F" sketch:type="MSShapeGroup" x="11" y="76" width="36" height="14" rx="1"></rect>
                </g>
            </g>
        </g>
    </g>
</svg>
